<svg xmlns="http://www.w3.org/2000/svg" viewBox="0 0 800 440"><defs><linearGradient id="paint" x1="0" y1="0" x2=".3" y2="1"><stop stop-color="#fafbfb"/><stop offset=".45" stop-color="#d5dedc"/><stop offset="1" stop-color="#718380"/></linearGradient><linearGradient id="glass" x2=".7" y2="1"><stop stop-color="#61767a"/><stop offset="1" stop-color="#172a30"/></linearGradient><radialGradient id="tyre"><stop stop-color="#536268"/><stop offset=".35" stop-color="#bbc4c5"/><stop offset=".42" stop-color="#68767d"/><stop offset=".7" stop-color="#18252b"/><stop offset="1" stop-color="#0e191f"/></radialGradient></defs><ellipse cx="414" cy="352" rx="327" ry="22" fill="#162c36" opacity=".14"/><path d="M81 292l12-58 61-30 88-81q15-14 43-14h262q22 0 36 17l67 79 64 26 21 65-21 22h-32q-8-70-62-70t-61 70H283q-7-70-63-70t-61 70h-52z" fill="url(#paint)" stroke="#7f9293" stroke-width="2"/><path d="M185 203l71-72h123v72zm210-72h139q14 0 22 12l48 60H395z" fill="url(#glass)" stroke="#8b9ea0" stroke-width="4"/><path d="M386 213v88m165-82 21 53" stroke="#8c9b9b" stroke-width="2"/><path d="M115 272h54m523 0h37" stroke="#273b40" stroke-width="13"/><path d="M315 224h32m132 0h31" stroke="#5e7275" stroke-width="5"/><path d="M273 102h249" stroke="#53656b" stroke-width="6"/><g fill="url(#tyre)" stroke="#111e25" stroke-width="6"><circle cx="220" cy="309" r="53"/><circle cx="623" cy="309" r="53"/></g><g fill="#b8c2c6" stroke="#25343c" stroke-width="7"><circle cx="220" cy="309" r="23"/><circle cx="623" cy="309" r="23"/></g><g fill="#34464b"><circle cx="220" cy="309" r="6"/><circle cx="623" cy="309" r="6"/></g><path d="M285 306h270" stroke="#4a5d60" stroke-width="6"/><path d="M98 252l17-21 41-5-12 26z" fill="#eaf7f9"/><path d="M687 234h30l14 15-43 2z" fill="#b53532"/></svg>
